<?xml version="1.0" encoding="utf-8"?>
<!-- Generator: Adobe Illustrator 16.0.3, SVG Export Plug-In . SVG Version: 6.00 Build 0)  -->
<!DOCTYPE svg PUBLIC "-//W3C//DTD SVG 1.1//EN" "http://www.w3.org/Graphics/SVG/1.1/DTD/svg11.dtd">
<svg version="1.1" id="Слой_2" xmlns="http://www.w3.org/2000/svg" xmlns:xlink="http://www.w3.org/1999/xlink" x="0px" y="0px"
	 width="612px" height="792px" viewBox="0 0 612 792" enable-background="new 0 0 612 792" xml:space="preserve">
<path fill="#FFEC2D" d="M70.383,385.952c-3.006,1.898-5.022,7.317-5.734,10.482c-1.622-2.215,0.672-6.408,1.581-8.584
	c-1.227,1.463-2.058,3.085-2.967,4.628c-1.067-5.657,2.334-10.839,1.386-16.141c-1.505,1.78-1.662,4.431-3.165,6.369
	c0.038-2.413,0-4.865,0-7.278c-0.277,2.294-0.989,4.707-1.78,6.883c-0.791-4.231,0-9.257-0.831-13.528
	c-1.107,2.53-6.211,7.596-9.336,6.884c3.086-3.562,7.991-6.251,6.092-11.789c-3.283,1.938-4.114,4.589-6.646,7.277
	c-0.119-3.242,1.384-7.041,3.837-9.217c-2.216,1.385-6.093,5.183-8.703,4.865c0.118-1.78,5.735-5.974,6.884-7.872
	c-1.741,1.859-4.511,2.413-6.409,3.916c-0.276-3.164,4.233-5.261,3.837-8.387c-3.283,0.396-5.854,2.058-9.651,1.622
	c1.938-2.215,5.854-3.283,7.042-6.487c-1.504-1.346-4.075,1.226-5.697,1.661c-2.81,0.712-5.144,0-7.872,0
	c2.532-0.04,8.822-1.582,9.613-3.956c-3.363,0.673-7.318,3.48-11.077,2.532c1.938-1.068,7.357-2.85,7.477-5.657
	c-2.176,0-3.479,2.809-6.132,2.057c0.989-2.294,3.284-3.758,3.521-6.486c-1.622,2.334-6.211,5.735-8.782,6.486
	c1.066-2.57,2.531-4.707,3.362-7.357c-2.177,2.571-4.114,5.46-7.438,6.014c2.334-3.244,4.629-6.211,4.866-10.444
	c-1.268,1.741-3.798,2.571-5.657,2.89c0.712-1.068,1.74-2.138,2.136-3.284c-1.897,1.106-4.589,1.859-5.735,3.68
	c0.316-3.561,2.137-5.657,3.362-8.821c-1.385,1.067-3.243,2.057-4.313,3.48c0.04-1.859,1.898-4.313,2.611-6.014
	c-4.353,1.227-7.912,2.849-12.305,0.315c2.453-0.039,7.438-2.688,8.703-4.786c-2.018,0.555-3.679,0.316-5.656-0.634
	c-0.157-1.582,1.859-1.266,2.889-2.176c-1.78-0.672-8.822-3.48-10.01-2.729c2.729-1.464,5.736-3.521,9.179-3.006
	c-2.729,0.515-5.184-1.385-7.833,0.396c0.791-1.346,2.531-1.583,3.798-2.176c-1.267,0-2.571,0.039-3.798-0.04
	c-0.158-0.237-0.158-0.516,0-0.712c1.067-0.237,2.018-0.674,2.967-1.068c0.119-0.515,0.119-0.712,0-1.188
	c-2.136-0.276-3.837,0.515-5.657,0.791c0.91-3.361,5.697-6.132,7.833-8.664c-2.136,1.386-4.589,2.532-6.923,3.363
	c2.967-3.401,9.771-9.179,14.638-9.376c-1.938-1.662-7.081,1.267-8.821,2.729c1.266-2.611,5.656-4.708,8.387-5.854
	c3.401-1.464,7.161-1.346,10.207-2.453c-2.729,0.158-5.657-1.266-8.506-0.276c2.888-1.622,6.408-2.137,9.218-3.401
	c-0.158,0-0.316,0.039-0.554,0.039c3.243-2.849,9.218-0.989,13.016-0.91c-0.91-0.315-2.018-0.712-2.453-1.74
	c10.048-1.187,19.267-1.106,28.365,3.402c-0.238-0.633-0.317-1.464-0.792-2.058c1.622-0.118,5.935,2.413,7.082,3.759
	c-0.04-0.237-0.04-0.437,0.039-0.673c2.295,0,4.708,4.313,5.854,6.132c0-0.396,0.672-1.582,0.83-2.137
	c3.838,1.938,6.646,16.102,10.563,15.469c-0.118-0.791,0.237-1.78,0.158-2.571c2.058,0.158,5.656,2.729,6.884,4.47
	c-1.464-1.066-2.81-2.809-4.114-4.073c3.165-0.396,8.427,1.227,10.998,2.967c-1.345-1.622-4.114-2.85-5.815-3.758
	c7.438-1.268,14.757,2.53,20.85,5.656c-0.396-0.436-0.555-1.227-0.792-1.662c3.48,1.068,13.332,2.138,13.332,7.873
	c0.276,0.158,0.91,0.396,1.188,0.436c1.067-4.51,11.076-2.294,13.965-0.989c-0.949-0.791-1.661-1.897-2.216-2.848
	c1.267,0,5.301,4.114,7.438,4.786c-0.04-1.346,0.633-2.452,1.897-2.889c0.437,0.237,0.831,0.04,1.268,0.158
	c0.908-1.622,0.435-3.007,1.858-4.47c0.909-0.95,3.125-2.334,4.313-2.532c-0.396,1.266-0.436,2.611,0.04,3.798
	c0.514-2.571,2.294-5.657,4.983-6.487c-1.464,2.412-0.396,4.471-0.396,6.924c-0.316-2.572,1.187-5.42,3.125-6.963
	c1.464-1.188,5.578-3.284,6.963-2.138c-3.086,1.188-4.629,2.138-5.736,5.145c-0.948,2.609-0.712,4.786,2.334,6.013
	c4.431,1.78,12.225-2.69,9.336-7.991c0.949,1.386,1.385,3.68,3.521,3.362c0.118-1.661-0.831-5.974,1.345-6.092
	c0.435,1.503,1.503,3.361,3.125,3.401c-0.276-1.067-0.989-2.176-0.791-3.48c2.611,0.158,6.369,2.729,9.178,3.521
	c3.126,0.91,5.303-0.396,8.506-0.039c-0.157-1.898-3.164-3.521-0.83-5.538c-0.158,3.521,3.521,3.362,6.014,3.401
	c-1.464-0.672-2.019-2.018-1.583-3.521c2.176,0.236,3.086,3.282,5.974,3.086c-1.938-2.73-0.633-4.035,0.277-6.688
	c1.106,1.622,1.74,4.472,4.629,4.035c-1.504-1.067-1.583-3.125-0.277-4.431c1.78,1.188,3.125,3.126,5.263,4.075
	c2.334,0.988,7.833,1.464,9.493,1.227c-1.106-0.554-2.136-1.899-2.215-3.086c1.859-0.515,3.521,0.554,5.183,0.91
	c1.74,0.396,3.917,0.435,5.814,0.275c-0.315-1.345-2.609-3.007-1.266-4.628c0.633,2.137,1.187,4.193,3.917,3.797
	c-0.119-0.435,0.237-1.187,0.118-1.62c0.988-0.237,2.058-0.556,2.967-0.95c0.277,1.938,3.165,2.453,3.284,0
	c1.938,1.741,2.018,2.61,5.261,2.61c2.295,0,4.787,0.237,7.042-0.118c1.464-0.237,4.866-0.634,6.251-1.346
	c0,0,1.266-2.809,0.633-5.183c3.283-0.039,4.629,2.889,5.301,0.119c1.622,2.215,5.063,1.897,6.369-0.555
	c0.91,0.673,1.78,1.859,2.571,2.61l2.69-0.909c0.909,3.758,7.872,4.51,7.199,0.039c2.69,0.949,3.916-1.78,4.905-4.035
	c1.188,0.673,1.741,2.138,2.137,3.362c0.158-1.067,0.555-1.938,1.346-2.809c1.067,1.385,1.858,2.413,2.216,4.113
	c0.158-0.712,0.791-1.345,0.988-2.057c0.315,0.118,1.346,0.672,1.622,0.949c0.039,0.236,0.118,0.515,0.157,0.712
	c1.938,0.515,4.629-5.262,6.488-6.527c0.949,1.661,1.107,3.917,1.938,5.696c1.503-0.554,2.057-2.136,2.689-3.362
	c1.859,1.346,2.689,2.019,3.562,4.193c1.106-0.554,1.897-1.661,1.778-3.007c1.068,0,1.859,1.107,2.611,1.662
	c1.266-1.899,0.633-4.984,3.125-6.015c0.713,2.019,2.176,5.145,2.295,7.358c0.712-1.107,0.831-3.086,2.967-2.571
	c0.831,3.759,7.438-1.385,9.336-1.503c19.029-1.227,26.901-11.275,28.998-10.959c0.04,0.437,0.437,0.831,0.516,1.227
	c1.621-0.829,2.215-2.57,3.561-3.798c0.672,1.188,0.672,3.007,0.039,4.193c1.583-0.514,2.137-2.057,3.402-3.085
	c1.106-0.91,2.809-0.673,3.361-0.95c1.228-0.672,2.177-3.758,4.313-3.402c0,0.317,0.04,0.792,0.04,1.108
	c1.621-1.267,2.018-3.126,1.857-5.144c1.741-0.237,2.295,2.018,3.086,3.362c0-1.067,0.316-2.018,1.228-2.453
	c0.237,0.713,0.791,1.386,0.989,2.019c-0.158-1.938,1.582-3.758,3.007-4.707c-0.119,1.74,1.106,2.967,1.938,4.431
	c0.712-1.188,2.215-2.889,3.798-3.007c-0.04,0.633,1.938,3.362,1.859,3.956c0.712-0.673,7.318-8.308,8.426-9.534
	c2.216-2.532,4.114-5.42,6.766-7.279c1.662-1.106,8.781-14.28,10.482-17.484c1.583-2.85,3.759-5.144,5.815-7.636
	c2.216-2.689,3.126-4.786,4.192-7.872c2.532-7.042,3.838-13.965,5.578-20.929c3.402-13.568,14.242-24.053,26.822-30.145
	c3.283-1.583,15.191-7.557,18.712-8.149c6.884-1.107,13.174-3.126,20.492-3.126c7.042,0,13.411,1.504,19.938,3.244
	c5.263,1.385,12.462,4.984,16.576,8.387c4.472,3.641,5.38,10.404,9.455,14.56c2.61,2.729,28.167,2.532,31.965,3.244
	c3.362,0.633,7.2,0.236,10.604,0.987c7.832,1.859,3.4,11.077,2.215,15.824c-1.345,5.539-2.532,12.462-6.488,17.13
	c-3.758,4.353-9.059,9.1-14.359,11.077c-2.137,0.791-6.805,2.176-9.731,4.353c4.432,0.396,12.62-4.114,13.729,2.295
	c0.514,2.967,0.554,4.589,2.136,7.199c1.464,2.413,3.007,5.262,1.78,6.963c-1.227,0.712-1.898-2.216-3.402-2.137
	c0.159,5.935-7.357,9.891-12.105,11.513c-6.092,2.058-13.33,3.361-19.66,4.352c-6.924,1.068-13.608,0.712-20.374,0.119
	c-4.865-0.437-5.063,2.018-5.815,6.25c-0.554,3.64-0.435,7.358-0.435,11.116c0,4.313-0.91,7.99-1.899,11.907
	c-0.514,2.019-1.384,3.799,0.119,5.421c1.74,1.897,4.431,1.897,6.646,1.067c-0.831,0.988-1.779,2.058-2.889,2.81
	c0.989,0.988,4.353,0.829,5.539,0.157c0.949,4.114-3.68,5.459-6.488,6.766c-1.067,0.515-2.294,1.622-3.282,2.018
	c-1.505,0.554-2.968-0.396-3.402,1.74c1.661,0.673,3.362,1.464,5.143,1.464c-1.897,0.792-3.164,2.413-5.143,3.244
	c0.515,0.396,0.91,1.266,1.582,1.662c-5.815,1.582,4.748,7.912,6.33,3.56c-0.119,0.989-0.712,2.019-1.188,2.968
	c0.83,0.396,1.661,0.713,2.571,1.067c0,1.741-0.989,4.629-2.888,5.302c1.857-0.712,4.113-0.633,6.013-0.396
	c-1.503,4.707-8.149,5.022-11.512,7.357c4.786,0.515,6.646,7.081,7.477,10.722c-1.78-1.347-3.007-3.244-5.301-4.233
	c1.78,3.283,6.25,12.62,3.164,16.141c-0.554-1.897-0.712-4.51-2.61-5.577c1.188,2.729,0.791,5.974,0.831,9.179
	c-0.555-2.137-1.346-7.438-4.866-6.488c-0.04,2.176,0.633,4.708,0.831,7.042c0.237,2.334,0.316,4.747,0.791,7.16
	c0.436,2.413,1.228,3.916,2.889,5.696c2.057,2.216,3.521,2.176,6.093,3.284c0.158,0.236,0.158,0.514,0,0.712
	c-1.583,0.673-3.562,0.791-4.787,1.938c0.791,2.136,3.521,3.244,5.696,3.125c-0.118,1.504-4.313,2.019-5.696,2.176
	c-1.899,0.237-6.527-0.988-7.596,0c0,0,1.187,3.917,0.909,3.759c0,3.361,2.294,7.16,4.313,9.652
	c-3.243-0.158-4.589-4.074-6.527-6.092c0.277,1.621-0.909,3.361-0.039,4.707c-1.622-0.949-2.61-3.244-3.956-4.629
	c-0.988,1.463-0.988,3.006-0.515,4.707c-1.464,0.119-2.413-1.344-3.402-2.135c-1.187,3.797,1.662,7.041,0.712,10.602
	c-3.679-0.949-4.785-3.006-4.352,2.295c0.237,2.809,1.346,6.963,0,9.652c-0.316-1.938-0.791-3.639-2.571-4.707
	c-0.236,1.859,0.673,3.758,0.791,5.736c0.158,2.334-0.315,3.678-1.226,5.656c-0.119-1.859-0.119-4.352-1.346-5.656
	c-0.396,3.086,0.554,9.611-0.91,11.945c-0.396-2.848-2.058-4.113-3.243-6.486c0.039,2.609,0.712,5.656,0.514,8.148
	c-0.83-1.662-3.085-4.51-4.352-5.578c-0.158,2.137,1.583,4.471,2.137,6.646c0.712,2.729,0.712,5.537,1.345,8.307
	c-1.227-2.135-3.679-7.199-5.735-8.268c-0.396,4.432,0.04,10.127-3.125,13.607c0.039-1.385-0.237-2.887-0.633-4.191
	c-0.516,1.385-1.108,2.729-1.78,4.191c-0.437-1.066-0.831-2.295-1.662-3.242c-1.938,2.531,0.436,7.873-2.136,9.533
	c0.118-0.949-0.04-1.859-0.673-2.453c-1.068,1.188-0.436,2.572-1.582,3.68c-0.04-0.988-0.555-1.504-0.989-2.334
	c-1.661,1.938-2.295,4.629-3.916,6.805c-0.119-0.949-0.515-1.504-0.634-2.453c-2.967,0.436-3.641,8.98-4.747,11.078
	c-0.396-1.227-0.237-3.48-1.345-3.957c-1.188,2.85-2.69,5.975-4.866,8.109c-1.661,1.623-2.413,0.555-1.582,2.611
	c0.633,1.385,2.452,2.137,3.165,3.402c-1.662-0.555-3.126-1.898-4.748-2.572c-0.672,4.035,2.849,6.766,5.063,9.771
	c-2.334-0.119-4.708-1.939-6.924-2.176c0.515,1.227,1.464,2.689,1.662,3.838c-0.396-0.158-1.267-0.158-1.622-0.316
	c0.791,3.244,0.237,5.063-1.068,8.387c-1.266,3.164-2.334,6.25-3.48,9.377c-1.188,3.242-2.057,6.406-2.689,9.77
	c-0.634,3.164-1.267,7.199-1.346,10.207c0,1.859,0.158,3.244,0,4.865c-0.276,1.938-0.83,3.799-1.385,5.695
	c-0.909,3.088-2.413,6.768-3.481,9.893c-2.018,5.934-2.294,14.082-1.345,20.451c0.989,6.805,8.506,9.455,14.242,12.896
	c5.854,3.561,17.802,13.057,14.004,19.385c5.144,15.35-15.824,7.357-16.102,7.16c-5.063,5.736-18.713-5.381-21.007-6.014
	c0.277,2.729,4.353,4.193,5.578,6.686c1.345,2.73,1.267,6.926-2.216,8.27c-1.582,0.633-1.582,0.633-1.582,0.633
	s-1.74,4.51-3.68,5.301c-9.533,3.76-18.039-3.559-18.039-3.559s-2.058,3.4-4.866,2.57c-23.42-7.041-16.854-14.242-18.554-20.77
	c-1.188-4.709-0.396-9.652-0.91-14.678c-0.158-1.938-1.859-15.508-5.38-11.709c0.04-1.742-0.118-3.402,0.515-5.025
	c-0.555,0.674-1.267,1.229-1.859,1.9c0.039-1.387,0.515-2.533,0.83-3.799c-1.463,0.236-3.006,1.188-4.312,1.623
	c-0.277-2.811,1.858-5.025,2.967-7.439c-2.611-3.916-10.325,5.816-12.304,6.963c3.007-6.766,5.578-10.602,9.1-11.551
	c-2.57-0.238-4.51,1.938-6.014,3.52c0.791-2.689,4.193-6.883,6.488-8.506c-1.74,0.674-3.681,1.623-5.063,2.691
	c0.039-2.533,2.019-4.984,3.837-6.646c1.385-1.266,4.035-1.898,3.125-3.48c-2.413-4.074-8.703,4.313-10.482,5.656
	c0.157-2.137,2.058-4.984,3.126-6.961c0.987-1.939,1.503-3.008,2.53-4.906c-2.967,1.779-4.983,4.432-7.438,6.924
	c-0.712-4.787,2.689-7.637,5.974-11.078c-3.243,1.582-7.991,4.074-9.651,7.477c0.117-1.896,1.897-4.904,3.125-6.406
	c1.067-1.387,4.904-3.363,4.865-4.906c-1.504-0.316-3.007,0.119-4.313,0.791c-0.276-2.453,3.086-3.561,3.48-5.656
	c-2.967-0.832-6.329,2.215-7.438,4.707c1.267-2.729,2.689-6.488,5.183-8.268c-2.018,1.066-5.063,2.412-6.646,4.629
	c1.346-3.682,4.866-6.607,6.646-10.01c-3.758,2.531-5.695,6.014-8.86,9.1c1.66-3.283,3.361-6.133,5.301-9.219
	c1.346-2.137,4.983-5.459,4.904-7.99c-4.589,1.266-7.91,8.307-10.205,11.828c0.673-10.127,9.218-19.307,9.771-22.906
	c-4.471-1.186-8.308,5.42-10.483,8.506c-2.849,3.957-4.034,8.27-5.935,12.66c0.437-14.559,7.833-27.416,8.545-29.592
	c0.791-0.396-6.408-9.732-7.317-11.234c-2.019-3.283-2.334-8.545-4.708-11.434c-0.118,3.164,1.464,7.635,2.216,10.879
	c0.672,2.809,1.858,6.883,3.758,9.336c-2.452-1.938-6.408-8.98-6.092-12.184c0,3.4-0.119,6.922,0.435,10.127
	c0.515,3.086-0.039,5.934-2.688,8.268c0.117-2.689,1.345-5.023,0.83-7.871c-0.515-2.85-2.137-5.539-2.571-8.309
	c0.04,3.68,1.938,11.67-0.91,14.398c-0.909-1.266-0.514-4.035-0.909-5.656c-0.436-1.898-1.346-3.521-2.334-5.262
	c-1.741-2.889-4.629-5.459-6.132-8.387c0.791,3.916-0.396,8.426,4.707,13.174c-4.905-1.898-6.487-8.387-8.782-10.563
	c-2.532-2.414-4.589-5.064-6.923-7.557c-0.554,4.865,0.91,8.584,2.888,12.855c0.989,2.137,3.641,9.219,5.815,11.434
	c-4.114-3.797-11.71-18.355-12.977-20.77c-0.948-1.898-1.858-4.629-2.888-6.33c-0.04,3.561-0.831,7.596-1.385,11.117
	c-0.396,2.57-0.673,7.912-3.086,9.336c1.74-8.428,2.137-12.777-0.91-18.078c-0.396,3.361-0.039,6.211-2.018,9.098
	c-0.634-1.502-0.396-3.561-0.673-5.182c-0.396-1.939-4.471-12.66-7.596-14.637c-0.396,3.281-0.91,6.805-0.436,10.166
	c0.515,3.641,2.216,7.357,3.401,10.602c-4.113-4.074-3.165-11.234-6.251-15.902c-1.187,2.059-0.118,6.646-0.315,9.336
	c-0.237,2.85-1.188,5.936-2.81,8.428c-0.791-1.385,0.316-10.959,0.554-13.332c0.277-3.402,1.386-9.732-2.57-11.514
	c-2.452,5.184-0.436,12.58-1.385,18.199c-0.237,1.463-0.118,3.086-0.436,4.469c-0.396,1.584-2.571,10.207-4.787,11.514
	c0.949-4.352,7.042-15.072,2.571-30.658c-0.515-1.742-1.898-8.547-1.345-9.338c0,0-3.125,9.891-3.125,16.021
	c0,3.008-2.177,16.021-2.217,19.424c0.04-6.686,0.437-13.449,0.437-20.254c0-4.787,0.791-11.947-2.137-15.627
	c0.157,3.957,0.673,8.584,0.315,12.857c-0.315,4.035-0.315,9.533-3.125,12.777c-0.119-3.164-0.396-16.379,0-19.307
	c-1.583,10.564-5.262,17.209-9.179,25.121c0.91-3.561,2.968-6.605,3.798-10.127c0.831-3.402,0.831-6.527,0.95-10.127
	c-2.334,2.887-4.708,5.301-7.2,8.109c3.125-4.865,6.687-7.992,6.25-14.084c-0.158-2.689-0.791-5.262-1.661-7.635
	c-0.791-2.217-2.61-4.232-3.244-6.408c-0.672,5.182-1.385,10.482-1.779,15.861c-0.276,3.918-2.689,18.041-5.815,22.551
	c0.831-5.143,3.086-9.73,3.126-14.953c0.039-4.906-1.188-9.771-0.91-14.559c-1.938,3.084-2.531,7.555-4.113,10.957
	c-1.188,2.572-3.917,7.992-6.527,8.822c2.176-3.244,3.956-6.408,5.262-10.207c0.672-1.898,1.067-3.244,1.345-5.301
	c0.276-1.779,0.039-4.471,0.949-6.094c-1.187,5.975-5.854,10.684-9.651,15.072c2.888-4.311,5.42-10.879,6.526-15.98
	c-1.385,2.215-3.007,4.629-4.747,6.605c0.396-1.857,1.346-4.787,0.83-6.25c-1.385,3.125-2.531,6.33-4.114,9.256
	c-1.858,3.482-4.47,6.133-7.041,8.863c1.107-2.295,2.058-4.629,2.968-7.201c0.672-1.938,1.227-5.854,2.809-7.041l-7.16,7.99
	c-1.858,1.385-2.729,7.834-3.917,10.207c-1.779,3.838-3.758,7.754-5.459,11.551c-1.583,3.521-3.521,7.162-5.814,10.287
	c-2.177,2.967-5.024,4.865-7.358,7.635c1.622-2.967,5.262-6.408,5.538-9.811c-2.848,1.463-4.707,4.904-6.923,7.199
	c-2.81,2.889-6.329,4.787-9.257,7.477c1.779-3.283,7.833-6.922,7.872-10.602c-1.346,1.582-5.063,5.537-7.041,4.352
	c-4.114,4.352-19.426,15.152-21.996,17.129c-3.244,2.572-6.25,4.748-9.179,7.834c-4.232,4.471-8.939,8.27-11.234,14.123
	c-2.413,6.211-2.452,14.359-1.345,20.928c0.948,5.736,2.848,10.404,6.132,15.23c2.334,3.48,3.916,10.285,7.635,11.908
	c1.741,0.711,3.244,0,4.984,0.117c1.385,0.119,3.64,0.949,4.984,1.582c3.48,1.582,5.144,3.283,5.656,6.807
	c0.673,4.588-0.909,4.588-4.905,6.211c-2.729,1.105-5.42,2.412-8.426,2.688c-3.917,0.396-6.766-0.791-10.286-1.344
	c-2.967-0.516-6.013-1.465-8.584-3.008c-5.46-3.402-6.646-9.811-10.009-14.914c-7.161-10.682-13.926-22.787-17.921-35.09
	c-0.989-3.164-0.989-7.041-2.176-10.285c-0.989-2.73-3.956-4.313-4.906-7.082c-2.136-6.25,2.295-11.551,6.488-16.693
	c4.114-5.064,8.427-9.771,13.016-14.123c0.712-0.674,2.571-2.018,2.888-2.889c0.674-1.898-0.515-2.215-1.385-3.797
	c-1.345-2.453-2.176-6.014-4.47-7.873c-0.437,2.176,1.898,8.506,3.401,10.008c-1.622-0.988-8.269-5.301-7.478-8.109
	c-2.216,2.611,2.69,10.84,4.035,13.529c-1.345-1.463-5.974-7.477-7.279-10.049c-2.215,1.109,1.78,11.395,2.295,13.729
	c-1.346-0.711-5.656-8.662-7.081-10.01c-0.04,0.158-0.83-0.633-1.227-1.066c-0.436,3.838,3.64,7.635,2.967,11.828
	c-2.295-2.295-4.313-9.219-7.357-9.613c-1.386,4.115-3.402,7.912-5.578,11.947c-0.949-1.66,0.315-4.629-0.791-6.488
	c-2.334,2.453-4.313,4.471-6.806,6.805c-3.521,3.363-6.605,7.082-10.048,10.287c1.107-2.889,3.521-6.094,4.313-8.783
	c-2.136,0.238-6.211,5.42-8.03,7.041c-2.453,2.139-4.708,4.473-6.686,7.043c-3.799,4.865-6.766,10.285-10.683,15.15
	c-4.232,5.262-16.654,30.621-15.468,37.98c0.791,4.785,2.294,10.008,3.561,14.676c0.276,1.068,0.634,2.611,1.227,3.561
	c0.989,1.662,1.385,1.107,2.81,1.859c2.177,1.188,3.521,1.74,5.023,3.799c1.622,2.293,5.697,9.811,2.689,12.223
	c-1.067,0.832-5.577,4.193-8.148,3.482c0.277,3.955-8.585,3.244-11.512,1.662c-2.453-1.346-3.839-1.781-3.839-1.781
	s-1.385,2.176-3.561,2.572c-3.837,0.672-12.58-3.363-14.123-6.41c-6.408-12.5-3.125-28.799,1.464-41.459
	c1.228-3.402,4.866-16.971,5.38-20.492c0.516-3.244-0.554-7.199-0.83-10.324c-0.276-3.838,2.413-6.924,3.916-10.404
	c1.267-2.969,1.068-5.539,1.347-8.664c0.157-1.662-0.516-3.797-0.04-5.379c0.436-1.387,1.739-2.336,2.809-3.482
	c5.063-5.064,10.286-9.811,15.903-14.281c4.313-3.361,8.939-8.861,9.771-14.279c0.555-3.482,0.673-6.926,1.267-10.287
	c0.555-2.889,2.018-6.369,1.74-9.219c-1.464,1.348-2.058,3.84-3.955,4.59c0.117-3.521,0.315-5.42,1.66-8.387
	c1.347-2.967,3.008-5.459,3.562-8.426c1.106-5.736,4.232-14.52,3.68-20.375c-0.634-6.211-0.673-14.359,0.436-20.928
	c0.515-3.125-2.019-2.412-0.555-5.381c1.464-2.889,4.432-6.328,4.114-9.652c-0.831,2.018-2.967,3.76-4.114,5.539
	c-1.503,2.295-2.849,3.799-5.538,5.023c2.137-2.809,3.799-4.59,4.984-8.029c-1.464,1.344-3.165,2.215-4.708,3.52
	c-1.859,1.623-1.503,3.363-2.688,5.184c0.117-2.453,0.236-6.211,1.266-8.229c-2.69,1.344-3.402,6.25-4.866,8.664
	c0.04-1.859-0.275-3.838,0-5.658c0.277-1.621,1.346-2.967,0.831-4.865c-2.216,1.188-3.244,5.656-4.352,7.832
	c-1.741-2.689-0.04-4.035,0.712-6.605c-1.938,2.018-7.438,7.873-10.444,5.975c3.244-0.674,6.884-4.787,7.991-7.715
	c1.662-4.352-0.118-5.024-2.215-8.268c0.396,2.057-0.673,2.61-1.464,4.231c-0.791,1.623-0.516,3.285-1.228,4.787
	c0-1.66-0.158-3.48-0.118-5.063c0.039-1.068,0.83-3.362,0.436-4.471c-2.571,0.516-1.898,5.936-3.562,7.833
	c-2.452-2.809-0.435-9.494,1.464-11.828L70.383,385.952z"/>
</svg>
